<svg width="24" height="24" viewBox="0 0 24 24" fill="none" xmlns="http://www.w3.org/2000/svg">
<path d="M3 5C3 3.89543 3.89543 3 5 3H19C20.1046 3 21 3.89543 21 5V19C21 20.1046 20.1046 21 19 21H5C3.89543 21 3 20.1046 3 19V5Z" fill="#FF6868"/>
<path fill-rule="evenodd" clip-rule="evenodd" d="M17.7368 8.23101C17.9054 8.37912 18 8.57989 18 8.78922C18 8.99855 17.9054 9.19932 17.7368 9.34743L10.422 15.7689C10.3376 15.843 10.2372 15.9015 10.1267 15.9412C10.0163 15.9809 9.89789 16.0009 9.77853 16C9.65917 15.9991 9.5412 15.9774 9.43149 15.9361C9.32179 15.8948 9.22254 15.8347 9.13953 15.7594L6.25656 13.1432C6.17364 13.0688 6.1083 12.9807 6.06429 12.8841C6.02027 12.7874 5.99845 12.6841 6.00009 12.58C6.00172 12.4759 6.02677 12.3731 6.0738 12.2776C6.12083 12.182 6.18891 12.0956 6.27413 12.0232C6.35935 11.9508 6.46002 11.8939 6.57037 11.8558C6.68071 11.8177 6.79855 11.7991 6.9171 11.8011C7.03566 11.8031 7.15259 11.8257 7.26119 11.8675C7.36978 11.9093 7.46789 11.9695 7.54988 12.0447L9.79699 14.0838L16.4651 8.23101C16.6338 8.08309 16.8625 8 17.101 8C17.3394 8 17.5681 8.08309 17.7368 8.23101Z" fill="#F8F8F8"/>
</svg>
